<?xml version="1.0" encoding="UTF-8" standalone="no"?>
<!-- Created with Inkscape (http://www.inkscape.org/) -->
<svg
   xmlns:dc="http://purl.org/dc/elements/1.1/"
   xmlns:cc="http://creativecommons.org/ns#"
   xmlns:rdf="http://www.w3.org/1999/02/22-rdf-syntax-ns#"
   xmlns:svg="http://www.w3.org/2000/svg"
   xmlns="http://www.w3.org/2000/svg"
   xmlns:xlink="http://www.w3.org/1999/xlink"
   xmlns:sodipodi="http://sodipodi.sourceforge.net/DTD/sodipodi-0.dtd"
   xmlns:inkscape="http://www.inkscape.org/namespaces/inkscape"
   height="232.93146"
   id="svg1061"
   inkscape:export-filename="/tmp/splash.png"
   inkscape:export-xdpi="24.700001"
   inkscape:export-ydpi="24.700001"
   inkscape:version="0.46"
   sodipodi:docbase="/root/img"
   sodipodi:docname="splash.svg"
   sodipodi:version="0.32"
   width="382.49869"
   inkscape:output_extension="org.inkscape.output.svg.inkscape"
   version="1.0">
  <metadata
     id="metadata3587">
    <rdf:RDF>
      <cc:Work
         rdf:about="">
        <dc:title>Magic Hat and Wand</dc:title>
        <dc:description />
        <dc:subject>
          <rdf:Bag>
            <rdf:li>magic</rdf:li>
            <rdf:li>hat</rdf:li>
            <rdf:li>clothing</rdf:li>
            <rdf:li>festive</rdf:li>
            <rdf:li>entertainment</rdf:li>
          </rdf:Bag>
        </dc:subject>
        <dc:publisher>
          <cc:Agent
             rdf:about="http://www.openclipart.org">
            <dc:title>Open Clip Art Library</dc:title>
          </cc:Agent>
        </dc:publisher>
        <dc:creator>
          <cc:Agent>
            <dc:title>Nathan Eady</dc:title>
          </cc:Agent>
        </dc:creator>
        <dc:rights>
          <cc:Agent>
            <dc:title>Galion Public Library</dc:title>
          </cc:Agent>
        </dc:rights>
        <dc:date />
        <dc:format>image/svg+xml</dc:format>
        <dc:type
           rdf:resource="http://purl.org/dc/dcmitype/StillImage" />
        <cc:license
           rdf:resource="http://web.resource.org/cc/PublicDomain" />
        <dc:language>en</dc:language>
      </cc:Work>
      <cc:License
         rdf:about="http://web.resource.org/cc/PublicDomain">
        <cc:permits
           rdf:resource="http://web.resource.org/cc/Reproduction" />
        <cc:permits
           rdf:resource="http://web.resource.org/cc/Distribution" />
        <cc:permits
           rdf:resource="http://web.resource.org/cc/DerivativeWorks" />
      </cc:License>
    </rdf:RDF>
  </metadata>
  <defs
     id="defs3">
    <inkscape:perspective
       sodipodi:type="inkscape:persp3d"
       inkscape:vp_x="0 : 103.125 : 1"
       inkscape:vp_y="0 : 1000 : 0"
       inkscape:vp_z="250 : 103.125 : 1"
       inkscape:persp3d-origin="125 : 68.75 : 1"
       id="perspective3641" />
    <linearGradient
       id="linearGradient5585">
      <stop
         id="stop5586"
         offset="0.0000000"
         style="stop-color:#ffff9f;stop-opacity:1.0000000;" />
      <stop
         id="stop5589"
         offset="0.50000000"
         style="stop-color:#f4ff05;stop-opacity:0.49803922;" />
      <stop
         id="stop5588"
         offset="1.0000000"
         style="stop-color:#ffca00;stop-opacity:0.0000000;" />
    </linearGradient>
    <linearGradient
       id="linearGradient5578">
      <stop
         id="stop5579"
         offset="0.0000000"
         style="stop-color:#fffd0b;stop-opacity:1.0000000;" />
      <stop
         id="stop5582"
         offset="0.32121211"
         style="stop-color:#ffdf0b;stop-opacity:1.0000000;" />
      <stop
         id="stop5580"
         offset="1.0000000"
         style="stop-color:#ffca00;stop-opacity:1.0000000;" />
    </linearGradient>
    <linearGradient
       id="linearGradient5573">
      <stop
         id="stop5574"
         offset="0.0000000"
         style="stop-color:#000000;stop-opacity:1.0000000;" />
      <stop
         id="stop5576"
         offset="0.060606062"
         style="stop-color:#2a2a2a;stop-opacity:1.0000000;" />
      <stop
         id="stop5575"
         offset="1.0000000"
         style="stop-color:#9f9f9f;stop-opacity:1.0000000;" />
    </linearGradient>
    <linearGradient
       id="linearGradient2336">
      <stop
         id="stop2337"
         offset="0.0000000"
         style="stop-color:#000000;stop-opacity:1.0000000;" />
      <stop
         id="stop2338"
         offset="1.0000000"
         style="stop-color:#a6a6a6;stop-opacity:1.0000000;" />
    </linearGradient>
    <linearGradient
       id="linearGradient1704">
      <stop
         id="stop1705"
         offset="0.0000000"
         style="stop-color:#000000;stop-opacity:1.0000000;" />
      <stop
         id="stop1706"
         offset="1.0000000"
         style="stop-color:#f0f0f0;stop-opacity:0.0000000;" />
    </linearGradient>
    <linearGradient
       gradientTransform="scale(2.136976,0.467951)"
       gradientUnits="userSpaceOnUse"
       id="linearGradient2348"
       inkscape:collect="always"
       x1="22.187286"
       x2="16.779757"
       xlink:href="#linearGradient2336"
       y1="132.77177"
       y2="61.286285" />
    <linearGradient
       gradientTransform="matrix(1.033599,-0.163893,0.149649,0.943765,-9.997055,2.205048)"
       gradientUnits="userSpaceOnUse"
       id="linearGradient2349"
       inkscape:collect="always"
       x1="26.260822"
       x2="69.193031"
       xlink:href="#linearGradient2336"
       y1="51.746941"
       y2="26.684929" />
    <linearGradient
       gradientTransform="scale(1.842778,0.542659)"
       gradientUnits="userSpaceOnUse"
       id="linearGradient2350"
       inkscape:collect="always"
       x1="18.646591"
       x2="29.07807"
       xlink:href="#linearGradient2336"
       y1="54.172573"
       y2="32.976986" />
    <linearGradient
       gradientTransform="scale(1.842779,0.542659)"
       gradientUnits="userSpaceOnUse"
       id="linearGradient2351"
       inkscape:collect="always"
       x1="13.258139"
       x2="33.361179"
       xlink:href="#linearGradient1704"
       y1="45.650658"
       y2="45.650658" />
    <linearGradient
       gradientTransform="matrix(1.033598,-0.163893,0.149649,0.943765,-9.2646e-2,1.35516)"
       gradientUnits="userSpaceOnUse"
       id="linearGradient2977"
       inkscape:collect="always"
       x1="33.907612"
       x2="34.28495"
       xlink:href="#linearGradient1704"
       y1="34.427311"
       y2="63.930538" />
    <radialGradient
       cx="34.507992"
       cy="296.44736"
       fx="34.507992"
       fy="296.44736"
       gradientTransform="scale(1.873017,0.533898)"
       gradientUnits="userSpaceOnUse"
       id="radialGradient1856"
       inkscape:collect="always"
       r="58.242554"
       spreadMethod="pad"
       xlink:href="#linearGradient2336" />
    <linearGradient
       gradientTransform="matrix(-2.096838,-0.393813,-0.359586,1.914593,168.9892,125.6226)"
       gradientUnits="userSpaceOnUse"
       id="linearGradient1877"
       inkscape:collect="always"
       x1="26.260822"
       x2="69.193031"
       xlink:href="#linearGradient2336"
       y1="51.746941"
       y2="26.684929" />
    <linearGradient
       gradientTransform="matrix(-2.096836,-0.393813,-0.359586,1.914593,148.4128,126.411)"
       gradientUnits="userSpaceOnUse"
       id="linearGradient1878"
       inkscape:collect="always"
       x1="33.907612"
       x2="34.28495"
       xlink:href="#linearGradient1704"
       y1="34.427311"
       y2="63.930538" />
    <radialGradient
       cx="40.804321"
       cy="276.17819"
       fx="40.652954"
       fy="277.24219"
       gradientTransform="matrix(1.873017,0,0,0.533898,-30.56218,14.375)"
       gradientUnits="userSpaceOnUse"
       id="radialGradient1927"
       inkscape:collect="always"
       r="71.408607"
       spreadMethod="pad"
       xlink:href="#linearGradient2336" />
    <linearGradient
       gradientTransform="matrix(1.934616,0,0,0.620412,-26.40222,7.403423)"
       gradientUnits="userSpaceOnUse"
       id="linearGradient5572"
       inkscape:collect="always"
       spreadMethod="reflect"
       x1="88.945717"
       x2="91.414238"
       xlink:href="#linearGradient5573"
       y1="136.88727"
       y2="133.89072" />
    <linearGradient
       gradientTransform="scale(1.848145,0.541083)"
       gradientUnits="userSpaceOnUse"
       id="linearGradient5581"
       inkscape:collect="always"
       spreadMethod="reflect"
       x1="38.514694"
       x2="38.054428"
       xlink:href="#linearGradient5578"
       y1="54.000278"
       y2="61.078014" />
    <linearGradient
       gradientTransform="matrix(1.848145,0,0,0.541083,-9.596281e-2,-5.494715e-2)"
       gradientUnits="userSpaceOnUse"
       id="linearGradient5584"
       inkscape:collect="always"
       spreadMethod="pad"
       x1="32.00119"
       x2="42.809353"
       xlink:href="#linearGradient5585"
       y1="44.479305"
       y2="46.01992" />
    <radialGradient
       cx="34.507992"
       cy="296.44736"
       fx="34.507992"
       fy="296.44736"
       gradientTransform="scale(1.873017,0.533898)"
       gradientUnits="userSpaceOnUse"
       id="radialGradient5605"
       inkscape:collect="always"
       r="58.242554"
       spreadMethod="pad"
       xlink:href="#linearGradient2336" />
    <linearGradient
       inkscape:collect="always"
       xlink:href="#linearGradient5585"
       id="linearGradient4212"
       gradientUnits="userSpaceOnUse"
       gradientTransform="matrix(1.8481447,0,0,0.5410827,-14.131031,-53.734244)"
       spreadMethod="pad"
       x1="32.00119"
       y1="44.479305"
       x2="42.809353"
       y2="46.01992" />
    <linearGradient
       inkscape:collect="always"
       xlink:href="#linearGradient5578"
       id="linearGradient4215"
       gradientUnits="userSpaceOnUse"
       gradientTransform="matrix(1.8481447,0,0,0.5410827,-14.035069,-53.679297)"
       spreadMethod="reflect"
       x1="38.514694"
       y1="54.000278"
       x2="38.054428"
       y2="61.078014" />
    <linearGradient
       inkscape:collect="always"
       xlink:href="#linearGradient5573"
       id="linearGradient4218"
       gradientUnits="userSpaceOnUse"
       gradientTransform="matrix(1.8865578,0.4285304,-0.1374254,0.6050002,-14.507237,-52.569256)"
       spreadMethod="reflect"
       x1="88.945717"
       y1="136.88727"
       x2="91.414238"
       y2="133.89072" />
    <linearGradient
       y2="38.967457"
       y1="37.466320"
       xlink:href="#linearGradient2103"
       x2="28.579330"
       x1="-0.45360050"
       inkscape:collect="always"
       id="linearGradient2109"
       gradientUnits="userSpaceOnUse"
       gradientTransform="scale(0.629945,1.58744)" />
    <linearGradient
       y2="94.414177"
       y1="41.101597"
       xlink:href="#linearGradient4501"
       x2="7.2543797"
       x1="65.452446"
       inkscape:collect="always"
       id="linearGradient2101"
       gradientUnits="userSpaceOnUse"
       gradientTransform="scale(1.339461,0.746569)" />
    <linearGradient
       y2="59.377396"
       y1="99.943436"
       xlink:href="#linearGradient4501"
       x2="46.300640"
       x1="11.687890"
       inkscape:collect="always"
       id="linearGradient2098"
       gradientUnits="userSpaceOnUse"
       gradientTransform="scale(1.35332,0.738924)" />
    <linearGradient
       y2="31.550043"
       y1="77.065865"
       xlink:href="#linearGradient4501"
       x2="91.667351"
       x1="41.567356"
       inkscape:collect="always"
       id="linearGradient2095"
       gradientUnits="userSpaceOnUse"
       gradientTransform="scale(1.108743,0.901922)" />
    <linearGradient
       y2="69.772568"
       y1="54.031708"
       xlink:href="#linearGradient4577"
       x2="84.034050"
       x1="64.369789"
       inkscape:collect="always"
       id="linearGradient2092"
       gradientUnits="userSpaceOnUse"
       gradientTransform="scale(0.984842,1.015391)" />
    <linearGradient
       y2="77.846748"
       y1="59.880016"
       xlink:href="#linearGradient4577"
       x2="65.886803"
       x1="57.664845"
       inkscape:collect="always"
       id="linearGradient2089"
       gradientUnits="userSpaceOnUse"
       gradientTransform="scale(0.974424,1.026247)" />
    <linearGradient
       y2="53.585785"
       y1="46.420788"
       xlink:href="#linearGradient4501"
       x2="30.641130"
       x1="34.761002"
       inkscape:collect="always"
       id="linearGradient2086"
       gradientUnits="userSpaceOnUse"
       gradientTransform="matrix(1.368283,0,0,0.730843,-2.605863,0.488599)" />
    <linearGradient
       y2="88.236832"
       y1="76.061981"
       xlink:href="#linearGradient4559"
       x2="48.891800"
       x1="62.741894"
       inkscape:collect="always"
       id="linearGradient2083"
       gradientUnits="userSpaceOnUse"
       gradientTransform="scale(1.173715,0.851995)" />
    <linearGradient
       y2="41.813087"
       y1="34.281265"
       xlink:href="#linearGradient4559"
       x2="61.441288"
       x1="68.398689"
       inkscape:collect="always"
       id="linearGradient2080"
       gradientUnits="userSpaceOnUse"
       gradientTransform="scale(1.017741,0.982568)" />
    <linearGradient
       y2="41.813087"
       y1="34.281265"
       xlink:href="#linearGradient4559"
       x2="61.441288"
       x1="68.398689"
       inkscape:collect="always"
       id="linearGradient4575"
       gradientUnits="userSpaceOnUse"
       gradientTransform="scale(1.017741,0.982568)" />
    <linearGradient
       y2="88.236832"
       y1="76.061981"
       xlink:href="#linearGradient4559"
       x2="48.891800"
       x1="62.741894"
       inkscape:collect="always"
       id="linearGradient4565"
       gradientUnits="userSpaceOnUse"
       gradientTransform="scale(1.173715,0.851995)" />
    <linearGradient
       y2="53.585785"
       y1="46.420788"
       xlink:href="#linearGradient4501"
       x2="30.641130"
       x1="34.761002"
       inkscape:collect="always"
       id="linearGradient4555"
       gradientUnits="userSpaceOnUse"
       gradientTransform="matrix(1.368283,0.000000,0.000000,0.730843,-2.605863,0.488599)" />
    <linearGradient
       y2="94.414177"
       y1="41.101597"
       xlink:href="#linearGradient4501"
       x2="7.2543797"
       x1="65.452446"
       inkscape:collect="always"
       id="linearGradient4545"
       gradientUnits="userSpaceOnUse"
       gradientTransform="scale(1.339461,0.746569)" />
    <linearGradient
       y2="77.846748"
       y1="59.880016"
       xlink:href="#linearGradient4577"
       x2="65.886803"
       x1="57.664845"
       inkscape:collect="always"
       id="linearGradient4537"
       gradientUnits="userSpaceOnUse"
       gradientTransform="scale(0.974424,1.026247)" />
    <linearGradient
       y2="69.772568"
       y1="54.031708"
       xlink:href="#linearGradient4577"
       x2="84.034050"
       x1="64.369789"
       inkscape:collect="always"
       id="linearGradient4527"
       gradientUnits="userSpaceOnUse"
       gradientTransform="scale(0.984842,1.015391)" />
    <linearGradient
       y2="31.550043"
       y1="77.065865"
       xlink:href="#linearGradient4501"
       x2="91.667351"
       x1="41.567356"
       inkscape:collect="always"
       id="linearGradient4517"
       gradientUnits="userSpaceOnUse"
       gradientTransform="scale(1.108743,0.901922)" />
    <linearGradient
       y2="59.377396"
       y1="99.943436"
       xlink:href="#linearGradient4501"
       x2="46.300640"
       x1="11.687890"
       inkscape:collect="always"
       id="linearGradient4507"
       gradientUnits="userSpaceOnUse"
       gradientTransform="scale(1.353320,0.738924)" />
    <linearGradient
       id="linearGradient4501">
      <stop
         style="stop-color:#858585;stop-opacity:1.0000000;"
         offset="0.0000000"
         id="stop4503" />
      <stop
         style="stop-color:#e8eded;stop-opacity:1.0000000;"
         offset="1.0000000"
         id="stop4505" />
    </linearGradient>
    <linearGradient
       id="linearGradient4559">
      <stop
         style="stop-color:#000000;stop-opacity:1.0000000;"
         offset="0.0000000"
         id="stop4561" />
      <stop
         style="stop-color:#404040;stop-opacity:1.0000000;"
         offset="1.0000000"
         id="stop4563" />
    </linearGradient>
    <linearGradient
       id="linearGradient4577">
      <stop
         style="stop-color:#858585;stop-opacity:1.0000000;"
         offset="0.0000000"
         id="stop4579" />
      <stop
         style="stop-color:#e8e8e8;stop-opacity:1.0000000;"
         offset="0.50000000"
         id="stop4583" />
      <stop
         style="stop-color:#858585;stop-opacity:1.0000000;"
         offset="1.0000000"
         id="stop4581" />
    </linearGradient>
    <linearGradient
       inkscape:collect="always"
       id="linearGradient2103">
      <stop
         style="stop-color:#000000;stop-opacity:1;"
         offset="0"
         id="stop2105" />
      <stop
         style="stop-color:#000000;stop-opacity:0;"
         offset="1"
         id="stop2107" />
    </linearGradient>
    <inkscape:perspective
       id="perspective14076"
       inkscape:persp3d-origin="50 : 33.333333 : 1"
       inkscape:vp_z="100 : 50 : 1"
       inkscape:vp_y="0 : 1000 : 0"
       inkscape:vp_x="0 : 50 : 1"
       sodipodi:type="inkscape:persp3d" />
    <path
       inkscape:transform-center-y="-9.1595058"
       inkscape:transform-center-x="3.5694881"
       transform="matrix(2.1081874,0.3011324,-0.3046338,2.1327012,-457.08475,-526.91922)"
       style="opacity:0.98999999;fill:none;fill-opacity:1;stroke:#000000;stroke-width:1;stroke-miterlimit:4;stroke-dasharray:none;stroke-opacity:1"
       d="M 515.71427,432.36218 A 124.28571,122.85714 0 1 1 267.14285,432.36218 A 124.28571,122.85714 0 1 1 515.71427,432.36218 z"
       sodipodi:ry="122.85714"
       sodipodi:rx="124.28571"
       sodipodi:cy="432.36218"
       sodipodi:cx="391.42856"
       id="path3001"
       sodipodi:type="arc" />
    <radialGradient
       inkscape:collect="always"
       xlink:href="#linearGradient2336"
       id="radialGradient3605"
       gradientUnits="userSpaceOnUse"
       gradientTransform="matrix(1.873017,0,0,0.533898,-32.329948,-2.28364)"
       spreadMethod="pad"
       cx="40.804321"
       cy="276.17819"
       fx="40.652954"
       fy="277.24219"
       r="71.408607" />
    <linearGradient
       inkscape:collect="always"
       xlink:href="#linearGradient1704"
       id="linearGradient3609"
       gradientUnits="userSpaceOnUse"
       gradientTransform="matrix(-2.096836,-0.393813,-0.359586,1.914593,146.64503,109.75236)"
       x1="33.907612"
       y1="34.427311"
       x2="34.28495"
       y2="63.930538" />
    <linearGradient
       inkscape:collect="always"
       xlink:href="#linearGradient2336"
       id="linearGradient3612"
       gradientUnits="userSpaceOnUse"
       gradientTransform="matrix(-2.096838,-0.393813,-0.359586,1.914593,167.22143,108.96396)"
       x1="26.260822"
       y1="51.746941"
       x2="69.193031"
       y2="26.684929" />
    <filter
       id="filter3633"
       inkscape:label="ombre">
      <feGaussianBlur
         stdDeviation="1"
         id="feGaussianBlur3635" />
    </filter>
    <filter
       id="filter3641"
       inkscape:label="effet">
      <feGaussianBlur
         stdDeviation="1"
         id="feGaussianBlur3643" />
    </filter>
    <mask
       maskUnits="userSpaceOnUse"
       id="mask4434">
      <g
         id="g4436"
         transform="translate(38,-100)">
        <rect
           ry="1.2498927"
           rx="1.9097264"
           y="239.34674"
           x="110.00676"
           height="53.87653"
           width="244.79471"
           id="rect4438"
           style="opacity:0.98999999;fill:#000000;fill-opacity:1;stroke:none;stroke-width:0.2;stroke-miterlimit:4;stroke-dasharray:none;stroke-opacity:1" />
        <text
           inkscape:label="texte normal"
           sodipodi:linespacing="125%"
           id="text4440"
           y="277.66202"
           x="114.23901"
           style="font-size:40px;font-style:italic;font-variant:normal;font-weight:normal;font-stretch:normal;text-align:start;line-height:125%;writing-mode:lr-tb;text-anchor:start;fill:#ffffff;fill-opacity:1;stroke:none;stroke-width:1px;stroke-linecap:butt;stroke-linejoin:miter;stroke-opacity:1;font-family:Swift;-inkscape-font-specification:Swift Italic"
           xml:space="preserve"><tspan
             y="277.66202"
             x="114.23901"
             id="tspan4442"
             sodipodi:role="line">Papywizard</tspan></text>
      </g>
    </mask>
  </defs>
  <sodipodi:namedview
     bordercolor="#666666"
     borderopacity="1.0"
     id="base"
     inkscape:current-layer="layer1"
     inkscape:cx="242.32416"
     inkscape:cy="116.46573"
     inkscape:grid-bbox="false"
     inkscape:pageopacity="0.0"
     inkscape:pageshadow="2"
     inkscape:window-height="1120"
     inkscape:window-width="1592"
     inkscape:window-x="0"
     inkscape:window-y="0"
     inkscape:zoom="1.9539942"
     pagecolor="#ffffff"
     showgrid="false">
    <inkscape:grid
       id="GridFromPre046Settings"
       type="xygrid"
       originx="0px"
       originy="0.0000000pt"
       spacingx="1.0000000pt"
       spacingy="1.0000000pt"
       color="#0000ff"
       empcolor="#0000ff"
       opacity="0.2"
       empopacity="0.4"
       empspacing="5"
       units="pt"
       visible="true"
       enabled="true" />
  </sodipodi:namedview>
  <g
     id="layer1"
     inkscape:groupmode="layer"
     inkscape:label="Layer 1"
     transform="translate(-3.3384623,6.9634604)">
    <path
       transform="matrix(0.989099,0.14725,-0.14725,0.989099,19.060632,-25.323049)"
       style="fill:url(#radialGradient5605);fill-opacity:1;fill-rule:nonzero;stroke:none;stroke-width:1.25;stroke-linecap:round;stroke-linejoin:round;stroke-miterlimit:4;stroke-opacity:1"
       sodipodi:type="arc"
       sodipodi:ry="19.0625"
       sodipodi:rx="66.875"
       sodipodi:cy="160.9375"
       sodipodi:cx="75"
       id="path1230"
       d="M 141.875,160.9375 A 66.875,19.0625 0 1 1 8.125,160.9375 A 66.875,19.0625 0 1 1 141.875,160.9375 z" />
    <path
       transform="matrix(0.567742,8.452137e-2,-8.452137e-2,0.567742,40.488022,45.94375)"
       style="fill:#000000;fill-opacity:1;fill-rule:nonzero;stroke:none;stroke-width:1.25;stroke-linecap:round;stroke-linejoin:round;stroke-miterlimit:4;stroke-opacity:1"
       sodipodi:type="arc"
       sodipodi:ry="19.0625"
       sodipodi:rx="66.875"
       sodipodi:cy="160.9375"
       sodipodi:cx="75"
       id="path1857"
       d="M 141.875,160.9375 A 66.875,19.0625 0 1 1 8.125,160.9375 A 66.875,19.0625 0 1 1 141.875,160.9375 z" />
    <g
       id="g3625"
       transform="translate(382,-42)">
      <path
         d="M 49.477408,165.0419 C 43.106275,135.64786 37.23437,104.35617 52.380661,61.262457 C 68.475986,94.92698 72.723776,135.96889 69.178546,170.61017 C 71.085156,135.45288 75.946716,96.03535 98.926592,66.489887 C 111.42209,108.5663 98.866852,145.47284 87.233286,172.32261 C 83.490056,172.09739 49.477408,165.0419 49.477408,165.0419 z"
         id="path5565"
         sodipodi:nodetypes="cccccc"
         style="fill:#e1e1e1;fill-opacity:1;fill-rule:evenodd;stroke:#898989;stroke-width:3.75;stroke-linecap:round;stroke-linejoin:round;stroke-miterlimit:4;stroke-opacity:1" />
      <path
         d="M 53.848689,154.46665 C 48.103446,131.63299 47.219563,104.37992 52.964806,79.778492 C 62.098268,105.55843 63.718722,128.68671 64.455292,158.00218 C 68.580076,158.29681 70.937096,158.1495 75.061886,158.44412 C 77.713546,132.36956 83.458786,107.62082 95.833157,84.63985 C 99.810642,109.68322 92.739567,136.49435 86.110446,160.21189 C 74.767266,158.73875 64.307979,158.1495 52.964806,156.67636"
         id="path5566"
         sodipodi:nodetypes="ccccccc"
         style="fill:#ffcbdb;fill-opacity:1;fill-rule:evenodd;stroke:#ffffff;stroke-width:2.5;stroke-linecap:round;stroke-linejoin:round;stroke-miterlimit:4;stroke-opacity:1" />
    </g>
    <g
       inkscape:label="Layer 1"
       id="g3591"
       transform="matrix(0.4370987,-0.8994135,0.8994135,0.4370987,4.8979686,162.1039)">
      <g
         id="g2111">
        <path
           style="fill:url(#linearGradient2101);fill-opacity:1;fill-rule:evenodd;stroke:none;stroke-width:1px;stroke-linecap:butt;stroke-linejoin:miter;stroke-opacity:1"
           sodipodi:nodetypes="cccccccccccc"
           id="path4496"
           d="M 8.9527029,30.405405 C 8.9527029,30.405405 15.202703,27.364865 20.608109,26.858108 C 27.364865,27.364865 71.114865,29.391892 72.297297,29.222973 C 73.47973,29.054054 90.878379,29.72973 91.554059,30.743243 C 96.452699,33.277027 95.439189,38.344595 96.283789,45.27027 C 97.128379,52.195946 97.466219,64.020271 93.918919,69.256757 C 90.371619,74.493243 90.878379,74.831081 89.527029,75.844595 C 90.371625,71.283784 90.202699,56.756757 90.202699,52.871622 C 90.202699,48.986486 93.581079,35.97973 86.486489,34.290541 C 79.391892,32.601351 56.25,32.601351 50.675676,32.263514 C 45.101351,31.925676 29.391892,31.756757 23.986486,31.25 C 18.581081,30.743243 13.682432,30.236486 8.9527029,30.405405 z" />
        <path
           style="fill:url(#linearGradient2098);fill-opacity:1;fill-rule:evenodd;stroke:none;stroke-width:1px;stroke-linecap:butt;stroke-linejoin:miter;stroke-opacity:1"
           sodipodi:nodetypes="cccccccccc"
           id="path3736"
           d="M 8.2770273,31.081081 C 8.2770273,31.081081 43.918919,31.756757 45.777027,31.925676 C 47.635135,32.094595 79.222973,32.939189 82.601351,33.277027 C 85.97973,33.614865 89.864865,35.641892 90.202703,38.175676 C 90.540541,40.70946 89.189189,73.817568 88.851351,75.168919 C 88.513514,76.52027 86.993243,77.871622 86.317568,77.871622 C 85.641892,77.871622 53.378378,77.871622 50.675676,77.702703 C 47.972973,77.533784 18.75,75 14.695946,73.141892 C 9.9662163,74.493243 4.8986483,60.304054 4.5608113,52.364865 C 5.4054053,44.763514 3.0405403,33.445946 8.2770273,31.081081 z" />
        <path
           style="fill:url(#linearGradient2095);fill-opacity:1;fill-rule:evenodd;stroke:none;stroke-width:1px;stroke-linecap:butt;stroke-linejoin:miter;stroke-opacity:1"
           sodipodi:nodetypes="ccccccc"
           id="path4509"
           d="M 54.560811,61.824324 C 54.560811,61.824324 52.364865,56.587838 53.547297,54.391892 C 54.72973,52.195946 58.277027,47.972973 61.655406,46.114865 C 69.087838,43.918919 80.405405,47.297297 83.445946,50.337838 C 86.486486,53.378378 89.695946,60.810811 87.668919,66.385135 C 85.641892,71.959459 84.290541,74.662162 80.574324,73.817568 C 76.858108,72.972973 56.587838,68.243243 54.560811,61.824324 z" />
        <path
           style="fill:url(#linearGradient2092);fill-opacity:1;fill-rule:evenodd;stroke:none;stroke-width:1px;stroke-linecap:butt;stroke-linejoin:miter;stroke-opacity:1"
           sodipodi:nodetypes="ccccccc"
           id="path4519"
           d="M 57.263514,57.601351 C 58.952703,56.587837 60.472973,48.47973 68.412162,49.831081 C 76.351351,51.182432 82.77027,54.72973 83.445946,59.290541 C 84.121621,63.851352 84.45946,69.087838 83.108108,70.777027 C 78.547297,73.141892 81.925676,71.790541 79.898649,73.986486 C 77.871622,76.182432 76.689189,75.506757 75.506757,77.195946 C 74.324324,78.885135 56.25,63.682432 57.263514,57.601351 z" />
        <path
           style="fill:url(#linearGradient2089);fill-opacity:1;fill-rule:evenodd;stroke:none;stroke-width:1px;stroke-linecap:butt;stroke-linejoin:miter;stroke-opacity:1"
           id="path4529"
           d="M 57.939189,57.939189 C 57.939189,57.939189 64.864865,55.743243 69.425676,58.614865 C 73.986486,61.486486 75.844595,65.202703 76.689189,69.425676 C 77.533784,73.648649 77.195946,78.040541 74.493243,79.222973 C 71.790541,80.405405 66.047297,83.614865 62.162162,81.587838 C 58.277027,79.560811 53.885135,77.364865 53.547297,73.817568 C 53.209459,70.27027 52.195946,60.641892 57.939189,57.939189 z" />
        <path
           style="fill:url(#linearGradient2086);fill-opacity:1;fill-rule:evenodd;stroke:none;stroke-width:1px;stroke-linecap:butt;stroke-linejoin:miter;stroke-opacity:1"
           sodipodi:nodetypes="ccccc"
           id="path4547"
           d="M 26.448191,33.596707 C 26.448191,33.596707 42.157651,33.934545 44.015759,35.961572 C 45.873867,37.988599 44.522515,42.718329 43.84684,44.06968 C 36.752245,43.394005 30.671164,43.731842 26.448191,42.718329 C 25.941434,41.366977 24.252245,36.468329 26.448191,33.596707 z" />
        <path
           style="fill:url(#linearGradient2083);fill-opacity:1;fill-rule:evenodd;stroke:none;stroke-width:1px;stroke-linecap:butt;stroke-linejoin:miter;stroke-opacity:1"
           sodipodi:nodetypes="ccccc"
           id="path4557"
           d="M 70.439189,64.358108 C 70.439189,64.358108 72.466216,71.114865 71.959459,73.310811 C 71.452703,75.506757 63.175676,74.493243 59.290541,74.662162 C 57.77027,73.817568 55.912162,64.189189 57.939189,64.02027 C 59.966216,63.851351 64.864865,63.682432 70.439189,64.358108 z" />
        <path
           style="fill:url(#linearGradient2080);fill-opacity:1;fill-rule:evenodd;stroke:none;stroke-width:1px;stroke-linecap:butt;stroke-linejoin:miter;stroke-opacity:1"
           sodipodi:nodetypes="ccccc"
           id="path4567"
           d="M 66.554054,36.824324 C 66.554054,36.824324 66.671189,42.983495 63.227461,44.54281 C 61.538272,45.556324 58.614865,45.777027 56.925676,43.918919 C 55.236486,42.060811 54.560811,34.121622 60.97973,34.966216 C 67.398649,35.810811 64.527027,34.459459 66.554054,36.824324 z" />
        <path
           style="fill:url(#linearGradient2109);fill-opacity:1;fill-rule:evenodd;stroke:none;stroke-width:1px;stroke-linecap:butt;stroke-linejoin:miter;stroke-opacity:1"
           sodipodi:nodetypes="cccccc"
           id="path1318"
           d="M 21.661238,31.433224 C 21.661238,31.433224 8.1433225,29.80456 7.6547231,30.944625 C 4.7231271,33.224756 4.2345277,43.159609 4.3973941,45.765472 C 4.5602606,50.814333 7.980456,67.752443 9.771987,70.032573 C 11.563518,72.312704 19.70684,74.267101 20.846905,74.104234 C 18.078176,68.729642 7.0032571,35.342019 21.661238,31.433224 z" />
        <path
           style="fill:#000000;fill-opacity:1;fill-rule:nonzero;stroke:none;stroke-width:1px;stroke-linecap:butt;stroke-linejoin:miter;stroke-opacity:1"
           sodipodi:nodetypes="ccccccccccccccccccccccccccccccccccccccccccccccccccccccccccccccccccccccccccccccccccccccccccccccccccccccccccccccccccccccccccccccccccccccccccccccccccccccccccccccccccccccccccccccccccccccccccccccccccccccc"
           id="path2835"
           d="M 22.59375,25.9375 C 17.844312,26.334007 12.674288,28.557816 8.625,29.71875 C 8.4307985,29.876834 8.4342498,29.944619 8.3125,30.0625 C 8.295237,30.079214 8.2658815,30.077804 8.25,30.09375 C 8.0700158,30.224286 7.898511,30.338147 7.71875,30.46875 C 7.4130536,30.598896 6.944472,30.964103 6.46875,31.375 C 6.4163964,31.413042 6.3960827,31.461837 6.34375,31.5 C 5.2139921,32.520769 4.0193011,34.063394 4.28125,35.53125 C 3.8152781,40.198193 3.1273698,44.911761 3.5,49.59375 C 3.68023,54.451112 4.5472484,58.222537 5.625,62.4375 C 6.4765673,66.333127 7.0452355,71.580824 11.40625,73.125 C 16.751654,74.715832 22.425287,74.907024 27.90625,75.84375 C 36.04176,77.240506 46.638124,77.925333 55,78.15625 C 56.431393,79.986448 58.432404,81.353536 60.75,81.84375 C 65.24073,82.882217 70.194806,82.225509 74.15625,79.8125 C 75.027803,79.439003 75.643655,78.868292 76.125,78.1875 C 79.764864,78.115183 86.973022,79.297073 89.375,76.21875 C 89.348517,76.629586 89.88446,76.405295 91.3125,75.1875 C 97.228919,67.061633 98.613771,56.45529 97.375,46.65625 C 96.004698,41.329608 98.422871,33.899469 92.96875,30.5 C 85.575883,27.726997 77.226286,28.601388 69.40625,28.4375 C 55.668517,27.633518 41.200892,27.769542 27.15625,26.28125 C 25.720541,25.899699 24.176896,25.805331 22.59375,25.9375 z M 21.375,27.3125 C 26.560703,27.136394 31.767303,27.984972 37,28.3125 C 50.64142,28.98646 63.880153,29.493674 77.3125,29.90625 C 82.782145,31.018135 90.591408,28.948293 93.71875,34.875 C 94.846801,44.927127 97.046242,55.400818 94.125,65.375 C 94.372676,67.744746 90.85361,73.050415 89.875,75.21875 C 91.79917,70.97528 91.240468,66.047325 91.21875,61.5 C 91.05236,56.723796 91.431931,51.943358 91.25,47.15625 C 90.906926,43.216146 92.179722,38.856419 90.3125,35.21875 C 87.657994,32.713105 83.727899,31.923983 80.15625,32.03125 C 72.023212,32.691854 64.04204,31.704408 55.6875,31.78125 C 48.949923,31.249413 42.217793,30.908076 35.46875,30.53125 C 27.081146,30.723453 18.696346,30.158893 10.3125,30.09375 C 12.628839,29.267852 15.739036,27.917636 16.1875,27.875 C 17.916021,27.538757 19.646432,27.371202 21.375,27.3125 z M 7.59375,31.46875 C 12.329459,31.275339 17.08501,31.537606 21.8125,31.8125 C 29.706896,31.999003 37.631329,31.769223 45.5,32.59375 C 51.749194,32.535699 57.843338,33.360511 64.09375,33.25 C 70.028573,33.749355 75.924182,33.057052 81.84375,33.65625 C 84.579714,34.309655 88.411434,35.0498 88.96875,38.34375 C 89.301768,44.141974 89.095072,49.971881 89.125,55.78125 C 89.060102,56.405487 89.151707,57.030316 89.125,57.65625 C 88.721312,55.515233 88.017271,53.428097 86.75,51.625 C 83.910259,48.510047 80.023088,46.316546 75.9375,45.28125 C 71.472926,43.797828 66.58759,44.157271 62.15625,45.5625 C 58.628689,47.268912 55.672888,50.121065 53.40625,53.28125 C 52.078714,54.801945 53.289753,60.502668 53.53125,61.59375 C 53.165598,62.235355 52.918176,62.891967 52.875,63.53125 C 52.395473,66.127453 52.606158,68.803037 52.625,71.4375 C 52.633268,73.310056 53.257676,75.12352 54.1875,76.75 C 39.394775,76.46118 28.893963,74.995202 14.25,72.03125 C 10.233827,71.229388 8.8238463,66.84759 8.21875,63.3125 C 7.116795,59.500169 6.0125202,56.042759 5.5672842,52.013233 C 5.23113,48.385461 5.599186,44.63198 5.78125,41.09375 C 6.3493858,37.899067 5.8411234,34.311987 7.59375,31.46875 z M 26.222818,33.556215 C 25.639252,34.069084 24.998178,33.603281 24.487887,34.200733 C 24.812274,34.151709 25.024635,34.741796 25.347818,34.713577 C 24.474879,35.598025 24.177897,37.548435 24.425387,38.513233 C 24.388136,40.184992 24.148075,42.453196 25.956637,43.325733 C 29.608884,44.071194 33.385539,43.421371 37.081637,43.794483 C 39.377587,43.809125 41.604389,45.106592 43.894137,44.544483 C 43.899902,44.551107 43.888225,44.569263 43.894137,44.575733 C 44.907468,44.594037 45.087562,44.214122 44.956637,43.825733 C 45.885745,42.725041 45.778407,40.885414 45.519137,39.544483 C 44.852469,38.359688 47.295913,36.603269 45.987887,36.138233 C 43.830795,37.08211 47.775373,35.472492 45.769137,34.888233 C 39.1969,35.194896 32.812217,32.750598 26.222818,33.556215 z M 18.21875,33.5 C 16.607156,33.987056 15.097995,34.824066 14.25,36.34375 C 12.314865,40.073194 12.745374,44.513939 13.0625,48.5625 C 13.912902,52.659941 14.232566,56.86287 15.34375,60.90625 C 16.428513,63.146584 16.367688,66.71619 18.46875,67.8125 C 21.518008,66.244448 17.397858,62.390047 17.46875,59.78125 C 16.480515,55.077933 15.458352,50.35471 15,45.5625 C 14.989663,41.425737 14.502856,36.301877 18.21875,33.5 z M 28.346706,34.619827 C 32.066777,34.852542 35.608148,35.468092 39.300387,35.950733 C 41.401707,35.972715 44.093726,35.911259 44.144137,37.575733 C 44.331844,38.700321 43.488407,41.260347 43.487887,43.044483 C 43.290928,43.051834 43.08942,43.016995 42.894137,43.106983 C 39.638967,42.382835 36.314263,42.183824 32.987887,42.231983 C 31.002863,42.092919 28.315675,42.951362 26.956637,41.044483 C 26.14574,39.182734 25.761793,37.553021 26.566568,34.464689 C 27.085769,34.45665 27.721096,34.587498 28.346706,34.619827 z M 62.09375,34.09375 C 61.224556,34.117678 60.343816,34.313272 59.53125,34.5625 C 57.897341,35.193158 56.233369,35.869239 54.96875,37.125 C 53.052648,39.390026 53.891364,43.234956 56.46875,44.625 C 58.485202,45.81125 61.059371,45.823297 63.15625,44.84375 C 64.43478,44.141181 65.991629,43.669941 66.78125,42.34375 C 67.467657,40.663537 67.593207,38.811553 67.3125,37.03125 C 67.141976,36.564922 67.360454,35.722627 66.71875,35.59375 C 66.398604,35.618078 66.146624,35.843235 65.875,36 C 65.647569,35.411945 65.133304,34.995736 64.625,34.65625 C 63.84921,34.219411 62.962944,34.069822 62.09375,34.09375 z M 60.8125,35.5 C 62.155407,35.550879 64.419675,37.479625 64.625,37.375 C 64.686484,37.338206 64.771132,37.311236 64.84375,37.28125 C 65.252839,38.887741 65.337754,40.574013 64.96875,42.1875 C 64.954567,42.80548 64.54771,43.3013 64.15625,43.75 C 64.078782,43.823679 64.120376,43.802012 64.09375,43.84375 C 62.743044,44.095447 61.349305,44.255023 60,43.9375 C 58.380663,43.570372 56.914321,42.423277 56.40625,40.8125 C 55.843182,39.242109 56.154109,37.303054 57.375,36.125 C 57.445256,36.115464 57.495893,36.148486 57.5625,36.125 C 58.623088,35.824367 59.692997,35.428977 60.8125,35.5 z M 66.71875,45.71875 C 72.102213,45.615702 77.568231,47.274475 81.9375,50.4375 C 85.636955,52.664496 87.007042,56.989523 87.28125,61.0625 C 87.478945,65.144056 86.7576,69.369714 83.625,72.34375 C 85.167302,72.166268 82.43998,72.422428 80.53125,73.03125 C 80.661333,72.850406 80.805492,72.679388 80.9375,72.5 C 83.218102,72.221734 84.433177,69.850089 84.6875,67.78125 C 85.150036,64.332343 84.779688,60.766725 83.59375,57.5 C 82.133488,54.740567 79.669486,52.645478 77.25,50.75 C 74.978608,49.246105 72.172991,48.849474 69.5,48.96875 C 66.48714,48.889555 63.012984,49.188135 60.90625,51.625 C 59.535961,53.521362 58.489725,55.665729 56.6875,57.21875 C 55.95885,57.927781 55.446707,59.07338 54.84375,59.9375 C 54.833665,59.948188 54.822549,59.958011 54.8125,59.96875 C 55.394411,56.475945 54.399498,51.835189 57.875,49.5625 C 58.496487,48.766659 62.581257,45.738074 61.28125,46.46875 C 61.17313,47.239058 65.200618,45.704617 66.71875,45.71875 z M 68.75,50.40625 C 71.382362,50.439471 74.05822,51.113418 76.125,52.8125 C 78.109271,54.340777 79.901225,56.180731 81.21875,58.3125 C 82.574625,61.078164 82.691837,64.258918 82.6875,67.28125 C 82.608905,68.440726 82.28688,69.57712 81.84375,70.65625 L 80.21875,71.40625 C 79.390972,72.393671 78.311769,73.924764 77.3125,74.65625 C 77.473176,73.709982 77.68736,72.757909 77.78125,71.875 C 78.419815,67.654997 76.352057,63.658867 73.78125,60.46875 C 72.144951,58.039351 69.208795,57.601801 66.53125,57.34375 C 63.951377,56.438957 61.236104,56.642489 58.5625,56.875 C 58.979128,56.337224 59.384936,55.779875 59.84375,55.34375 C 60.792747,54.315875 61.662117,53.139457 62.0625,51.78125 C 60.799499,52.501158 62.733441,50.938131 63.21875,50.8125 C 64.981187,50.330696 66.913798,50.450713 68.75,50.40625 z M 60.40625,58.0625 C 63.747177,58.666176 67.482568,58.577229 70.40625,60.4375 C 73.137166,62.995376 75.32987,66.489982 75.6875,70.28125 C 75.600753,73.243058 75.763027,75.829279 74.09375,78.40625 C 74.743641,78.785104 73.148114,79.613786 72.0625,80.09375 C 67.314691,81.345632 61.386305,81.466396 57.75,77.625 C 54.8741,74.927442 54.649873,70.77682 54.78125,67.09375 C 54.46742,64.035719 55.217706,60.849201 57.28125,58.5 C 56.735877,58.825434 57.461861,58.343928 57.59375,58.25 C 58.357024,58.322697 59.744226,58.14357 60.40625,58.0625 z M 59.21875,62.78125 L 59.03125,62.90625 C 58.503862,62.981977 57.97884,63.140597 57.46875,63.4375 C 57.402193,63.545381 57.343408,63.657788 57.34375,63.75 L 56.96875,63.9375 C 56.590677,64.815676 56.313778,65.807958 56.15625,66.78125 C 55.791358,67.968623 55.890492,69.118594 56.125,70.3125 C 56.456703,71.602914 57.550598,74.1107 58.3125,75.1875 L 58.5,75.09375 C 61.408879,74.954443 64.308186,75.041897 67.21875,75.0625 C 68.127995,75.062428 69.03313,75.033411 69.9375,75.125 C 69.937503,75.124999 71.036738,74.904677 70.90625,75.21875 L 73.15625,74.21875 C 73.521692,73.05978 73.572711,71.84573 73.6875,70.625 C 73.730915,69.205477 73.723293,67.757133 73.125,66.4375 C 72.469349,65.102685 71.583018,63.937512 70.65625,62.78125 L 69.6875,63.3125 C 69.567701,63.318961 69.461687,63.327128 69.34375,63.34375 C 67.912984,63.459104 66.470707,63.564944 65.03125,63.5 C 62.917479,63.451346 61.006465,62.676642 59.1875,62.875 C 59.197147,62.847628 59.209035,62.808609 59.21875,62.78125 z M 57.46875,63.4375 C 57.493263,63.397768 57.528093,63.354482 57.5625,63.3125 L 56.8125,63.875 C 57.0275,63.696768 57.251033,63.564231 57.46875,63.4375 z M 68.8125,64.46875 C 69.667209,65.437646 70.416842,66.484118 70.96875,67.65625 C 71.541375,68.93946 71.513984,70.341672 71.46875,71.71875 C 71.387697,72.377902 71.364342,73.015781 71.28125,73.65625 C 70.595515,73.619385 69.907697,73.584951 69.21875,73.59375 C 66.359632,73.613601 62.616386,74.385505 59.71875,74.28125 C 59.616009,73.996128 58.580125,70.383424 58.28125,69.15625 C 58.069198,67.985753 58.04645,66.84908 58.375,65.6875 C 58.451559,65.296 58.551161,64.914387 58.65625,64.53125 C 60.006459,64.834499 62.058795,64.895512 63.0625,64.9375 C 64.504196,65.017815 65.94198,64.913536 67.375,64.78125 C 67.732276,64.748057 68.080786,64.742433 68.4375,64.71875 L 68.8125,64.46875 z M 89.09375,66.03125 C 89.145809,68.459037 89.137198,70.883748 88.65625,73.28125 C 89.202455,74.489105 87.196694,76.682822 87.03125,77.34375 C 85.848015,76.85116 78.794052,77.15246 76.78125,77 L 78.1875,76.375 C 78.663932,75.64768 79.163879,74.935714 79.65625,74.21875 C 83.644252,73.97419 88.209778,70.714504 88.96875,67.03125 C 89.035279,66.709673 89.037379,66.358262 89.09375,66.03125 z" />
      </g>
    </g>
    <path
       style="fill:url(#linearGradient3612);fill-opacity:1;fill-rule:evenodd;stroke:#000000;stroke-width:0;stroke-linecap:butt;stroke-linejoin:miter;stroke-miterlimit:4;stroke-opacity:1"
       sodipodi:nodetypes="ccccc"
       id="path1866"
       d="M 91.807315,222.31611 L 107.3157,149.69362 C 101.21583,163.36614 44.734591,163.7804 36.425009,144.30729 L 24.345768,210.46003 C 28.420641,214.77313 49.181417,233.40357 91.807315,222.31611 z" />
    <path
       style="opacity:0.65;fill:url(#linearGradient3609);fill-opacity:1;fill-rule:evenodd;stroke:#000000;stroke-width:0;stroke-linecap:butt;stroke-linejoin:miter;stroke-miterlimit:4;stroke-opacity:1"
       sodipodi:nodetypes="ccccc"
       id="path1867"
       d="M 91.378466,222.45998 L 106.76317,152.72613 C 96.592007,160.22018 59.904349,159.31733 36.47494,147.36594 L 24.117704,211.23625 C 27.598584,215.15917 48.752562,233.54744 91.378466,222.45998 z" />
    <path
       style="fill:url(#radialGradient3605);fill-opacity:1;fill-rule:evenodd;stroke:none;stroke-width:1.25;stroke-linecap:round;stroke-linejoin:round;stroke-miterlimit:4;stroke-opacity:1"
       sodipodi:nodetypes="ccccccc"
       id="path1890"
       d="M 107.64626,149.5871 C 108.53563,143.61303 137.44571,144.61681 135.89626,155.0246 C 134.34681,165.43239 103.47135,169.49159 66.95876,164.05585 C 30.446171,158.62012 2.0655724,145.7449 3.6150104,135.3371 C 5.1644484,124.9293 32.598136,132.30053 31.70876,138.2746 C 30.819384,144.24867 47.125565,151.62325 68.083756,154.74335 C 89.041956,157.86346 106.75689,155.56117 107.64626,149.5871 z" />
    <path
       style="fill:none;fill-opacity:0.75;fill-rule:evenodd;stroke:url(#linearGradient4218);stroke-width:6.84726906;stroke-linecap:round;stroke-linejoin:round;stroke-miterlimit:4;stroke-opacity:1"
       sodipodi:nodetypes="cc"
       id="path5568"
       d="M 55.516095,-2.2571996 L 233.1048,90.744686" />
    <rect
       y="-31.96932"
       x="44.045776"
       width="25.704853"
       transform="matrix(0.8831569,0.4690777,-0.4708369,0.8822203,0,0)"
       style="fill:url(#linearGradient4215);fill-opacity:1;fill-rule:evenodd;stroke:#ffe400;stroke-width:0;stroke-linecap:round;stroke-linejoin:round;stroke-miterlimit:4;stroke-opacity:1"
       ry="1.3841118"
       rx="1.9999951"
       id="rect5577"
       height="7.5256367" />
    <rect
       y="-31.95874"
       x="43.944126"
       width="25.704838"
       transform="matrix(0.8831569,0.4690777,-0.4708369,0.8822203,0,0)"
       style="fill:url(#linearGradient4212);fill-opacity:1;fill-rule:evenodd;stroke:#ffe400;stroke-width:0;stroke-linecap:round;stroke-linejoin:round;stroke-miterlimit:4;stroke-opacity:1"
       ry="1.3841094"
       rx="1.9999942"
       id="rect5583"
       height="7.5256233" />
    <text
       xml:space="preserve"
       style="font-size:40px;font-style:italic;font-variant:normal;font-weight:normal;font-stretch:normal;text-align:start;line-height:125%;writing-mode:lr-tb;text-anchor:start;fill:#000000;fill-opacity:1;stroke:none;stroke-width:1px;stroke-linecap:butt;stroke-linejoin:miter;stroke-opacity:1;font-family:Swift;-inkscape-font-specification:Swift Italic"
       x="152.53638"
       y="177.1393"
       id="text2663"
       sodipodi:linespacing="125%"
       inkscape:label="texte normal"><tspan
         sodipodi:role="line"
         id="tspan2665"
         x="152.53638"
         y="177.1393">Papywizard</tspan></text>
    <text
       xml:space="preserve"
       style="font-size:40px;font-style:italic;font-variant:normal;font-weight:normal;font-stretch:normal;text-align:start;line-height:125%;writing-mode:lr-tb;text-anchor:start;fill:#000000;fill-opacity:1;stroke:none;stroke-width:1px;stroke-linecap:butt;stroke-linejoin:miter;stroke-opacity:1;filter:url(#filter3633);font-family:Swift;-inkscape-font-specification:Swift Italic"
       x="154.53201"
       y="179.09758"
       id="text3629"
       sodipodi:linespacing="125%"
       inkscape:label="text ombre"><tspan
         sodipodi:role="line"
         id="tspan3631"
         x="154.53201"
         y="179.09758">Papywizard</tspan></text>
    <text
       xml:space="preserve"
       style="font-size:40px;font-style:italic;font-variant:normal;font-weight:normal;font-stretch:normal;text-align:start;line-height:125%;writing-mode:lr-tb;text-anchor:start;fill:#ff6600;fill-opacity:1;stroke:none;stroke-width:1px;stroke-linecap:butt;stroke-linejoin:miter;stroke-opacity:1;filter:url(#filter3641);font-family:Swift;-inkscape-font-specification:Swift Italic"
       x="152.59961"
       y="177.94423"
       id="text3637"
       sodipodi:linespacing="125%"
       inkscape:label="texte effet"
       mask="url(#mask4434)"><tspan
         sodipodi:role="line"
         id="tspan3639"
         x="152.59961"
         y="177.94423">Papywizard</tspan></text>
  </g>
</svg>
