<?xml version="1.0" encoding="UTF-8" standalone="no"?>
<!-- Creator: CorelDRAW -->
<svg
   xmlns:dc="http://purl.org/dc/elements/1.1/"
   xmlns:cc="http://creativecommons.org/ns#"
   xmlns:rdf="http://www.w3.org/1999/02/22-rdf-syntax-ns#"
   xmlns:svg="http://www.w3.org/2000/svg"
   xmlns="http://www.w3.org/2000/svg"
   xmlns:xlink="http://www.w3.org/1999/xlink"
   xmlns:sodipodi="http://sodipodi.sourceforge.net/DTD/sodipodi-0.dtd"
   xmlns:inkscape="http://www.inkscape.org/namespaces/inkscape"
   xml:space="preserve"
   width="744.09448"
   height="1052.3622"
   style="fill-rule:evenodd"
   viewBox="0 0 210 297"
   id="svg2"
   sodipodi:version="0.32"
   inkscape:version="0.46"
   sodipodi:docname="papywizard.svg"
   inkscape:output_extension="org.inkscape.output.svg.inkscape"
   version="1.0"><metadata
   id="metadata27"><rdf:RDF><cc:Work
       rdf:about=""><dc:format>image/svg+xml</dc:format><dc:type
         rdf:resource="http://purl.org/dc/dcmitype/StillImage" /></cc:Work></rdf:RDF></metadata><sodipodi:namedview
   inkscape:window-height="1120"
   inkscape:window-width="1592"
   inkscape:pageshadow="2"
   inkscape:pageopacity="0.0"
   guidetolerance="10.0"
   gridtolerance="10.0"
   objecttolerance="10.0"
   borderopacity="1.0"
   bordercolor="#666666"
   pagecolor="#ffffff"
   id="base"
   showgrid="false"
   inkscape:zoom="0.61682569"
   inkscape:cx="381.79134"
   inkscape:cy="728.51434"
   inkscape:window-x="0"
   inkscape:window-y="0"
   inkscape:current-layer="svg2" />
 <defs
   id="defs4"><linearGradient
   inkscape:collect="always"
   id="linearGradient3277"><stop
     style="stop-color:#3f5a90;stop-opacity:1;"
     offset="0"
     id="stop3279" /><stop
     style="stop-color:#3f5a90;stop-opacity:0;"
     offset="1"
     id="stop3281" /></linearGradient><linearGradient
   id="linearGradient3261"><stop
     style="stop-color:#dedede;stop-opacity:1;"
     offset="0"
     id="stop3263" /><stop
     style="stop-color:#ffffff;stop-opacity:1;"
     offset="1"
     id="stop3265" /></linearGradient><linearGradient
   id="linearGradient3245"><stop
     style="stop-color:#bfb700;stop-opacity:1;"
     offset="0"
     id="stop3247" /><stop
     style="stop-color:#fff83a;stop-opacity:1;"
     offset="1"
     id="stop3249" /></linearGradient><linearGradient
   id="linearGradient3237"><stop
     style="stop-color:#2060a8;stop-opacity:1;"
     offset="0"
     id="stop3239" /><stop
     style="stop-color:#4f91dd;stop-opacity:1;"
     offset="1"
     id="stop3241" /></linearGradient><linearGradient
   id="linearGradient3229"><stop
     style="stop-color:#005ec8;stop-opacity:1;"
     offset="0"
     id="stop3231" /><stop
     style="stop-color:#91dfff;stop-opacity:1;"
     offset="1"
     id="stop3233" /></linearGradient><inkscape:perspective
   sodipodi:type="inkscape:persp3d"
   inkscape:vp_x="0 : 526.18109 : 1"
   inkscape:vp_y="0 : 1000 : 0"
   inkscape:vp_z="744.09448 : 526.18109 : 1"
   inkscape:persp3d-origin="372.04724 : 350.78739 : 1"
   id="perspective29" />
  <style
   type="text/css"
   id="style6">
   
    .str0 {stroke:#495677;stroke-width:1.4}
    .fil0 {fill:#0093DD}
    .fil4 {fill:#FFF500}
    .fil3 {fill:white}
    .fil1 {fill:#0075B7}
    .fil2 {fill:#3F5A90}
   
  </style>
 
  <metadata
   id="CorelCorpID_1Corel-Layer" />
  
  
  
  
 
  <metadata
   id="CorelCorpID_0Corel-Layer" />
  
  
  
 <linearGradient
   inkscape:collect="always"
   xlink:href="#linearGradient3229"
   id="linearGradient3235"
   x1="90.871216"
   y1="64.566269"
   x2="137.80003"
   y2="55.186707"
   gradientUnits="userSpaceOnUse" /><linearGradient
   inkscape:collect="always"
   xlink:href="#linearGradient3237"
   id="linearGradient3243"
   x1="84.580673"
   y1="171.36217"
   x2="162.01933"
   y2="152.44044"
   gradientUnits="userSpaceOnUse"
   gradientTransform="matrix(0.9942915,0.1066973,-0.1066973,0.9942915,16.940519,-10.057051)" /><linearGradient
   inkscape:collect="always"
   xlink:href="#linearGradient3245"
   id="linearGradient3251"
   x1="94.235275"
   y1="119.38815"
   x2="103.48762"
   y2="112.66842"
   gradientUnits="userSpaceOnUse" /><linearGradient
   inkscape:collect="always"
   xlink:href="#linearGradient3245"
   id="linearGradient3259"
   x1="91.618736"
   y1="93.860634"
   x2="100.04896"
   y2="89.069168"
   gradientUnits="userSpaceOnUse" /><linearGradient
   inkscape:collect="always"
   xlink:href="#linearGradient3261"
   id="linearGradient3267"
   x1="124.91594"
   y1="92.617134"
   x2="133.93742"
   y2="89.64312"
   gradientUnits="userSpaceOnUse" /><linearGradient
   inkscape:collect="always"
   xlink:href="#linearGradient3261"
   id="linearGradient3275"
   x1="62.860424"
   y1="77.39798"
   x2="66.594116"
   y2="74.809937"
   gradientUnits="userSpaceOnUse" /><linearGradient
   inkscape:collect="always"
   xlink:href="#linearGradient3277"
   id="linearGradient3283"
   x1="124.95269"
   y1="159.04526"
   x2="172.86021"
   y2="155.15617"
   gradientUnits="userSpaceOnUse" /><linearGradient
   inkscape:collect="always"
   xlink:href="#linearGradient3245"
   id="linearGradient3293"
   x1="169.90935"
   y1="37.34623"
   x2="191.23158"
   y2="32.313293"
   gradientUnits="userSpaceOnUse" /><linearGradient
   inkscape:collect="always"
   xlink:href="#linearGradient3261"
   id="linearGradient3318"
   gradientUnits="userSpaceOnUse"
   x1="165.18369"
   y1="43.69524"
   x2="170.04494"
   y2="43.901958" /><mask
   maskUnits="userSpaceOnUse"
   id="mask3334"><g
     id="g3336"
     transform="matrix(0.7165048,0,0,1,51.116507,0)"><rect
       ry="7.1384888"
       rx="7.520534"
       y="11.037699"
       x="146.87024"
       height="62.911705"
       width="67.487106"
       id="rect3338"
       style="opacity:0.98999999;fill:#ffffff;fill-opacity:1;stroke:none;stroke-width:7.5250001;stroke-miterlimit:4;stroke-dasharray:none;stroke-opacity:1" /><path
       sodipodi:type="arc"
       style="opacity:0.98999999;fill:#000000;fill-opacity:1;fill-rule:evenodd;stroke:none;stroke-width:1;stroke-miterlimit:4;stroke-dasharray:none;stroke-opacity:1"
       id="path3340"
       sodipodi:cx="176.83908"
       sodipodi:cy="41.921627"
       sodipodi:rx="13.113176"
       sodipodi:ry="20.360516"
       d="M 189.95226,41.921627 A 13.113176,20.360516 0 1 1 163.7259,41.921627 A 13.113176,20.360516 0 1 1 189.95226,41.921627 z"
       transform="matrix(1.6747968,0,0,1.1067416,-109.72211,-4.5891651)" /></g></mask><linearGradient
   inkscape:collect="always"
   xlink:href="#linearGradient3261"
   id="linearGradient3352"
   gradientUnits="userSpaceOnUse"
   x1="124.91594"
   y1="92.617134"
   x2="133.93742"
   y2="89.64312" /><linearGradient
   inkscape:collect="always"
   xlink:href="#linearGradient3229"
   id="linearGradient3354"
   gradientUnits="userSpaceOnUse"
   x1="90.871216"
   y1="64.566269"
   x2="137.80003"
   y2="55.186707" /><linearGradient
   inkscape:collect="always"
   xlink:href="#linearGradient3261"
   id="linearGradient3356"
   gradientUnits="userSpaceOnUse"
   x1="165.18369"
   y1="43.69524"
   x2="170.04494"
   y2="43.901958" /><linearGradient
   inkscape:collect="always"
   xlink:href="#linearGradient3237"
   id="linearGradient3358"
   gradientUnits="userSpaceOnUse"
   gradientTransform="matrix(0.9942915,0.1066973,-0.1066973,0.9942915,16.940519,-10.057051)"
   x1="84.580673"
   y1="171.36217"
   x2="162.01933"
   y2="152.44044" /><linearGradient
   inkscape:collect="always"
   xlink:href="#linearGradient3277"
   id="linearGradient3360"
   gradientUnits="userSpaceOnUse"
   x1="124.95269"
   y1="159.04526"
   x2="172.86021"
   y2="155.15617" /><linearGradient
   inkscape:collect="always"
   xlink:href="#linearGradient3245"
   id="linearGradient3362"
   gradientUnits="userSpaceOnUse"
   x1="94.235275"
   y1="119.38815"
   x2="103.48762"
   y2="112.66842" /><linearGradient
   inkscape:collect="always"
   xlink:href="#linearGradient3261"
   id="linearGradient3364"
   gradientUnits="userSpaceOnUse"
   x1="62.860424"
   y1="77.39798"
   x2="66.594116"
   y2="74.809937" /><linearGradient
   inkscape:collect="always"
   xlink:href="#linearGradient3245"
   id="linearGradient3366"
   gradientUnits="userSpaceOnUse"
   x1="91.618736"
   y1="93.860634"
   x2="100.04896"
   y2="89.069168" /></defs>
 
 <g
   id="g3342"
   transform="matrix(1,0,0,1.032769,0,-0.197689)"
   inkscape:export-filename="/home/fma/develop/papywizard/trunk/maemo/papywizard.png"
   inkscape:export-xdpi="3.52"
   inkscape:export-ydpi="3.52"><path
     inkscape:export-ydpi="67.839996"
     inkscape:export-xdpi="67.839996"
     inkscape:export-filename="/home/fma/papywizard.png"
     style="fill:url(#linearGradient3352);fill-opacity:1"
     class="fil3"
     d="M 129.75862,88.98089 C 129.41791,90.8859 131.21393,79.035784 131.44909,79.528995 L 136.44156,90.003008 L 142.27341,91.268417 L 138.54475,95.179902 L 145.37591,108.92304 L 133.99596,98.032242 L 126.63616,105.30997 L 128.3576,94.555545 C 128.3576,94.555545 117.70181,86.38995 119.66743,86.690581 C 121.63305,86.991212 128.90727,89.224141 129.75862,88.98089 L 129.75862,88.98089 z"
     id="path18" /><path
     inkscape:export-ydpi="67.839996"
     inkscape:export-xdpi="67.839996"
     inkscape:export-filename="/home/fma/papywizard.png"
     style="fill:url(#linearGradient3354);fill-opacity:1;stroke:#495677;stroke-width:2.12374377"
     class="fil0 str0"
     d="M 157.55622,152.02023 C 157.4053,146.02083 146.52868,92.912155 134.36657,64.579818 C 122.20446,36.247481 106.85606,19.144094 106.85606,19.144094 C 106.85606,19.144094 102.88995,13.199207 95.955604,18.53307 C 89.021256,23.866933 89.714239,27.300991 89.714239,27.300991 C 89.714239,27.300991 68.338561,15.432983 48.278333,11.014797 C 28.218106,6.5966107 8.8896467,7.1132298 8.8896467,7.1132298 L 86.194816,71.868652 L 84.93392,44.146619 L 90.995106,154.06565 L 157.55622,152.02023 z"
     id="path10" /><path
     inkscape:export-ydpi="67.839996"
     inkscape:export-xdpi="67.839996"
     inkscape:export-filename="/home/fma/papywizard.png"
     mask="url(#mask3334)"
     clip-path="none"
     transform="matrix(1.2033819,-0.5272447,0.3264402,0.7854091,-86.726444,159.38102)"
     d="M 189.95226,41.921627 A 13.113176,20.360516 0 1 1 163.7259,41.921627 A 13.113176,20.360516 0 1 1 189.95226,41.921627 z"
     sodipodi:ry="20.360516"
     sodipodi:rx="13.113176"
     sodipodi:cy="41.921627"
     sodipodi:cx="176.83908"
     id="path3285"
     style="opacity:0.98999999;fill:url(#linearGradient3356);fill-opacity:1;stroke:none;stroke-width:1;stroke-miterlimit:4;stroke-dasharray:none;stroke-opacity:1"
     sodipodi:type="arc" /><path
     inkscape:export-ydpi="67.839996"
     inkscape:export-xdpi="67.839996"
     inkscape:export-filename="/home/fma/papywizard.png"
     style="fill:url(#linearGradient3358);fill-opacity:1;stroke:#495677;stroke-width:2.12374377"
     class="fil1 str0"
     d="M 191.55013,164.92571 C 185.70727,173.39733 179.79789,181.4069 166.34986,181.81035 C 152.90169,182.21376 126.67896,175.70545 112.54998,174.51461 C 87.512146,172.40465 35.08286,195.14905 39.193518,182.77902 C 41.544011,175.70533 62.361637,160.05429 70.69113,156.78474 C 73.869729,155.53688 79.14248,152.09227 90.352579,149.31027 C 108.87836,144.7125 130.26618,146.5827 148.23005,140.39912 C 169.38286,133.11811 181.23218,111.25967 190.32395,125.33345 C 193.11026,129.64673 197.39287,156.45406 191.55013,164.92571 z"
     id="path12" /><path
     inkscape:export-ydpi="67.839996"
     inkscape:export-xdpi="67.839996"
     inkscape:export-filename="/home/fma/papywizard.png"
     style="fill:url(#linearGradient3360);fill-opacity:1;stroke:#495677;stroke-width:2.12372231;stroke-miterlimit:4;stroke-dasharray:none"
     class="fil2 str0"
     d="M 123.40597,152.85228 C 135.31905,152.49345 160.25716,152.61758 159.66312,162.03083 C 159.06908,171.44407 134.8853,169.61807 124.54828,168.61357 C 110.27397,167.22647 89.442672,172.67065 90.254875,166.13106 C 91.520125,155.94371 118.15388,153.33198 123.40597,152.85228 L 123.40597,152.85228 z"
     id="path14" /><polygon
     inkscape:export-ydpi="67.839996"
     inkscape:export-xdpi="67.839996"
     inkscape:export-filename="/home/fma/papywizard.png"
     transform="matrix(1.2969276,0.2005306,-0.2144999,1.2124646,-1.4343965,-58.335401)"
     style="fill:url(#linearGradient3362);fill-opacity:1"
     class="fil4"
     points="91.4305,125.848 92.8685,121.774 90.7115,114.823 94.5462,116.501 101.976,110.509 99.5792,121.055 107.249,128.005 99.3395,126.088 100.059,134.716 95.5048,127.526 91.4305,125.848 "
     id="polygon20" /><polygon
     inkscape:export-ydpi="67.839996"
     inkscape:export-xdpi="67.839996"
     inkscape:export-filename="/home/fma/papywizard.png"
     transform="matrix(1.2969276,0.2490428,-0.2144999,1.5057827,-1.7579259,-105.31283)"
     style="fill:url(#linearGradient3364);fill-opacity:1"
     class="fil3"
     points="62.0267,70.7391 65.1372,73.738 72.356,74.6592 69.2385,77.4522 71.6074,86.6982 63.007,80.1421 53.501,84.2364 58.5271,77.8358 50.3785,74.9101 58.8098,73.7501 62.0267,70.7391 "
     id="polygon22" /><polygon
     inkscape:export-ydpi="67.839996"
     inkscape:export-xdpi="67.839996"
     inkscape:export-filename="/home/fma/papywizard.png"
     transform="matrix(1.2969276,0.2377355,-0.2144999,1.4374159,-1.7579259,-96.258144)"
     style="fill:url(#linearGradient3366);fill-opacity:1"
     class="fil4"
     points="90.3317,80.4336 93.8843,89.6888 86.8395,95.6818 95.9814,96.2423 100.512,103.322 101.666,94.155 112.489,92.7358 102.923,87.6189 104.994,79.9323 97.6245,85.9878 90.3317,80.4336 "
     id="polygon24" /></g>
</svg>